<svg xmlns="http://www.w3.org/2000/svg" xmlns:xlink="http://www.w3.org/1999/xlink">
  <defs>
    <symbol viewBox="0 0 15 15" id="hamburger" height="100%" width="100%">
      <path d="M7.49999 3.09998C7.27907 3.09998 7.09999 3.27906 7.09999 3.49998C7.09999 3.72089 7.27907 3.89998 7.49999 3.89998H14.5C14.7209 3.89998 14.9 3.72089 14.9 3.49998C14.9 3.27906 14.7209 3.09998 14.5 3.09998H7.49999ZM7.49998 5.1C7.27907 5.1 7.09998 5.27908 7.09998 5.5C7.09998 5.72091 7.27907 5.9 7.49998 5.9H14.5C14.7209 5.9 14.9 5.72091 14.9 5.5C14.9 5.27908 14.7209 5.1 14.5 5.1H7.49998ZM7.1 7.5C7.1 7.27908 7.27909 7.1 7.5 7.1H14.5C14.7209 7.1 14.9 7.27908 14.9 7.5C14.9 7.72091 14.7209 7.9 14.5 7.9H7.5C7.27909 7.9 7.1 7.72091 7.1 7.5ZM7.49998 9.1C7.27907 9.1 7.09998 9.27908 7.09998 9.5C7.09998 9.72091 7.27907 9.9 7.49998 9.9H14.5C14.7209 9.9 14.9 9.72091 14.9 9.5C14.9 9.27908 14.7209 9.1 14.5 9.1H7.49998ZM7.09998 11.5C7.09998 11.2791 7.27907 11.1 7.49998 11.1H14.5C14.7209 11.1 14.9 11.2791 14.9 11.5C14.9 11.7209 14.7209 11.9 14.5 11.9H7.49998C7.27907 11.9 7.09998 11.7209 7.09998 11.5ZM2.5 9.25003L5 6.00003H0L2.5 9.25003Z" fill="currentColor" fill-rule="evenodd" clip-rule="evenodd"></path>
    </symbol>
    <symbol viewBox="0 0 15 15" id="arrow-left">
      <path d="M6.85355 3.14645C7.04882 3.34171 7.04882 3.65829 6.85355 3.85355L3.70711 7H12.5C12.7761 7 13 7.22386 13 7.5C13 7.77614 12.7761 8 12.5 8H3.70711L6.85355 11.1464C7.04882 11.3417 7.04882 11.6583 6.85355 11.8536C6.65829 12.0488 6.34171 12.0488 6.14645 11.8536L2.14645 7.85355C1.95118 7.65829 1.95118 7.34171 2.14645 7.14645L6.14645 3.14645C6.34171 2.95118 6.65829 2.95118 6.85355 3.14645Z" fill="currentColor" fill-rule="evenodd" clip-rule="evenodd"></path>    
    </symbol>
    <symbol viewBox="0 0 15 15" id="arrow-right">
      <path d="M8.14645 3.14645C8.34171 2.95118 8.65829 2.95118 8.85355 3.14645L12.8536 7.14645C13.0488 7.34171 13.0488 7.65829 12.8536 7.85355L8.85355 11.8536C8.65829 12.0488 8.34171 12.0488 8.14645 11.8536C7.95118 11.6583 7.95118 11.3417 8.14645 11.1464L11.2929 8H2.5C2.22386 8 2 7.77614 2 7.5C2 7.22386 2.22386 7 2.5 7H11.2929L8.14645 3.85355C7.95118 3.65829 7.95118 3.34171 8.14645 3.14645Z" fill="currentColor" fill-rule="evenodd" clip-rule="evenodd"></path>
    </symbol>
  </defs>
</svg>



<svg width="15" height="15" viewBox="0 0 15 15" fill="none" xmlns="http://www.w3.org/2000/svg"><path d="M7.49999 3.09998C7.27907 3.09998 7.09999 3.27906 7.09999 3.49998C7.09999 3.72089 7.27907 3.89998 7.49999 3.89998H14.5C14.7209 3.89998 14.9 3.72089 14.9 3.49998C14.9 3.27906 14.7209 3.09998 14.5 3.09998H7.49999ZM7.49998 5.1C7.27907 5.1 7.09998 5.27908 7.09998 5.5C7.09998 5.72091 7.27907 5.9 7.49998 5.9H14.5C14.7209 5.9 14.9 5.72091 14.9 5.5C14.9 5.27908 14.7209 5.1 14.5 5.1H7.49998ZM7.1 7.5C7.1 7.27908 7.27909 7.1 7.5 7.1H14.5C14.7209 7.1 14.9 7.27908 14.9 7.5C14.9 7.72091 14.7209 7.9 14.5 7.9H7.5C7.27909 7.9 7.1 7.72091 7.1 7.5ZM7.49998 9.1C7.27907 9.1 7.09998 9.27908 7.09998 9.5C7.09998 9.72091 7.27907 9.9 7.49998 9.9H14.5C14.7209 9.9 14.9 9.72091 14.9 9.5C14.9 9.27908 14.7209 9.1 14.5 9.1H7.49998ZM7.09998 11.5C7.09998 11.2791 7.27907 11.1 7.49998 11.1H14.5C14.7209 11.1 14.9 11.2791 14.9 11.5C14.9 11.7209 14.7209 11.9 14.5 11.9H7.49998C7.27907 11.9 7.09998 11.7209 7.09998 11.5ZM2.5 9.25003L5 6.00003H0L2.5 9.25003Z" fill="currentColor" fill-rule="evenodd" clip-rule="evenodd"></path></svg>